<mxfile host="app.diagrams.net" agent="Mozilla/5.0 (Windows NT 10.0; Win64; x64) AppleWebKit/537.36 (KHTML, like Gecko) Chrome/127.0.0.0 Safari/537.36 Edg/127.0.0.0" version="24.7.7">
  <diagram name="Page-1" id="i7fpQ9B7ahYENhG6Lf_w">
    <mxGraphModel dx="890" dy="783" grid="1" gridSize="10" guides="1" tooltips="1" connect="1" arrows="1" fold="1" page="1" pageScale="1" pageWidth="850" pageHeight="1100" math="0" shadow="0">
      <root>
        <mxCell id="0" />
        <mxCell id="1" parent="0" />
        <mxCell id="XNVVMmCtmMsjMyF7j9ZI-3" value="" style="edgeStyle=orthogonalEdgeStyle;rounded=0;orthogonalLoop=1;jettySize=auto;html=1;" edge="1" parent="1" source="XNVVMmCtmMsjMyF7j9ZI-1" target="XNVVMmCtmMsjMyF7j9ZI-2">
          <mxGeometry relative="1" as="geometry" />
        </mxCell>
        <mxCell id="XNVVMmCtmMsjMyF7j9ZI-1" value="Start" style="strokeWidth=2;html=1;shape=mxgraph.flowchart.start_1;whiteSpace=wrap;" vertex="1" parent="1">
          <mxGeometry x="260" y="40" width="100" height="60" as="geometry" />
        </mxCell>
        <mxCell id="XNVVMmCtmMsjMyF7j9ZI-5" value="" style="edgeStyle=orthogonalEdgeStyle;rounded=0;orthogonalLoop=1;jettySize=auto;html=1;" edge="1" parent="1" source="XNVVMmCtmMsjMyF7j9ZI-2" target="XNVVMmCtmMsjMyF7j9ZI-4">
          <mxGeometry relative="1" as="geometry" />
        </mxCell>
        <mxCell id="XNVVMmCtmMsjMyF7j9ZI-2" value="Sum = 0&lt;div&gt;Value = 0&lt;/div&gt;" style="whiteSpace=wrap;html=1;strokeWidth=2;" vertex="1" parent="1">
          <mxGeometry x="250" y="130" width="120" height="60" as="geometry" />
        </mxCell>
        <mxCell id="XNVVMmCtmMsjMyF7j9ZI-7" value="" style="edgeStyle=orthogonalEdgeStyle;rounded=0;orthogonalLoop=1;jettySize=auto;html=1;" edge="1" parent="1" source="XNVVMmCtmMsjMyF7j9ZI-4">
          <mxGeometry relative="1" as="geometry">
            <mxPoint x="310" y="360" as="targetPoint" />
          </mxGeometry>
        </mxCell>
        <mxCell id="XNVVMmCtmMsjMyF7j9ZI-4" value="Get a value &lt;br&gt;from the user" style="shape=parallelogram;perimeter=parallelogramPerimeter;whiteSpace=wrap;html=1;fixedSize=1;strokeWidth=2;" vertex="1" parent="1">
          <mxGeometry x="250" y="220" width="120" height="60" as="geometry" />
        </mxCell>
        <mxCell id="XNVVMmCtmMsjMyF7j9ZI-11" value="" style="edgeStyle=orthogonalEdgeStyle;rounded=0;orthogonalLoop=1;jettySize=auto;html=1;" edge="1" parent="1" source="XNVVMmCtmMsjMyF7j9ZI-8" target="XNVVMmCtmMsjMyF7j9ZI-10">
          <mxGeometry relative="1" as="geometry" />
        </mxCell>
        <mxCell id="XNVVMmCtmMsjMyF7j9ZI-8" value="Display the sum" style="shape=parallelogram;perimeter=parallelogramPerimeter;whiteSpace=wrap;html=1;fixedSize=1;strokeWidth=2;" vertex="1" parent="1">
          <mxGeometry x="250" y="550" width="120" height="60" as="geometry" />
        </mxCell>
        <mxCell id="XNVVMmCtmMsjMyF7j9ZI-10" value="Stop" style="strokeWidth=2;html=1;shape=mxgraph.flowchart.start_1;whiteSpace=wrap;" vertex="1" parent="1">
          <mxGeometry x="260" y="670" width="100" height="60" as="geometry" />
        </mxCell>
        <mxCell id="XNVVMmCtmMsjMyF7j9ZI-17" style="edgeStyle=orthogonalEdgeStyle;rounded=0;orthogonalLoop=1;jettySize=auto;html=1;entryX=1;entryY=0.5;entryDx=0;entryDy=0;" edge="1" parent="1" source="XNVVMmCtmMsjMyF7j9ZI-12" target="XNVVMmCtmMsjMyF7j9ZI-8">
          <mxGeometry relative="1" as="geometry">
            <Array as="points">
              <mxPoint x="430" y="360" />
              <mxPoint x="430" y="580" />
            </Array>
          </mxGeometry>
        </mxCell>
        <mxCell id="XNVVMmCtmMsjMyF7j9ZI-18" value="Yes" style="edgeLabel;html=1;align=center;verticalAlign=middle;resizable=0;points=[];" vertex="1" connectable="0" parent="XNVVMmCtmMsjMyF7j9ZI-17">
          <mxGeometry x="-0.4449" y="-1" relative="1" as="geometry">
            <mxPoint as="offset" />
          </mxGeometry>
        </mxCell>
        <mxCell id="XNVVMmCtmMsjMyF7j9ZI-19" value="No" style="edgeStyle=orthogonalEdgeStyle;rounded=0;orthogonalLoop=1;jettySize=auto;html=1;" edge="1" parent="1" source="XNVVMmCtmMsjMyF7j9ZI-12" target="XNVVMmCtmMsjMyF7j9ZI-13">
          <mxGeometry relative="1" as="geometry" />
        </mxCell>
        <mxCell id="XNVVMmCtmMsjMyF7j9ZI-12" value="if value = -1" style="strokeWidth=2;html=1;shape=mxgraph.flowchart.decision;whiteSpace=wrap;" vertex="1" parent="1">
          <mxGeometry x="260" y="310" width="100" height="100" as="geometry" />
        </mxCell>
        <mxCell id="XNVVMmCtmMsjMyF7j9ZI-21" style="edgeStyle=orthogonalEdgeStyle;rounded=0;orthogonalLoop=1;jettySize=auto;html=1;entryX=0;entryY=0.5;entryDx=0;entryDy=0;entryPerimeter=0;" edge="1" parent="1" source="XNVVMmCtmMsjMyF7j9ZI-13" target="XNVVMmCtmMsjMyF7j9ZI-12">
          <mxGeometry relative="1" as="geometry">
            <mxPoint x="130" y="360" as="targetPoint" />
            <Array as="points">
              <mxPoint x="110" y="490" />
              <mxPoint x="110" y="360" />
            </Array>
          </mxGeometry>
        </mxCell>
        <mxCell id="XNVVMmCtmMsjMyF7j9ZI-13" value="Sum = sum + value" style="whiteSpace=wrap;html=1;strokeWidth=2;" vertex="1" parent="1">
          <mxGeometry x="250" y="460" width="120" height="60" as="geometry" />
        </mxCell>
      </root>
    </mxGraphModel>
  </diagram>
</mxfile>
